/* XPM */
const char * uDMX_xpm[] = {
"32 32 73 1",
" 	c #FFBB00",
".	c #FFAD00",
"+	c #FF6100",
"@	c #FF5000",
"#	c #FF5400",
"$	c #FF5900",
"%	c #FF5A00",
"&	c #FF5F00",
"*	c #FF6A00",
"=	c #FF6C00",
"-	c #FF7100",
";	c #FF7200",
">	c #FF6700",
",	c #FF6800",
"'	c #FF5B00",
")	c #FF5500",
"!	c #FF6500",
"~	c #FF9900",
"{	c #FFB700",
"]	c #FFB200",
"^	c #FFA100",
"/	c #FF8000",
"(	c #FF6400",
"_	c #FFB500",
":	c #FF5200",
"<	c #FF8800",
"[	c #FF6E00",
"}	c #FF8600",
"|	c #FF9100",
"1	c #FF8F00",
"2	c #FF9400",
"3	c #FF8B00",
"4	c #FF7900",
"5	c #FF6F00",
"6	c #FF5100",
"7	c #FF4C00",
"8	c #FF9500",
"9	c #FF9C00",
"0	c #FF8200",
"a	c #FF5C00",
"b	c #FF4E00",
"c	c #FFA300",
"d	c #FFAB00",
"e	c #FFAF00",
"f	c #FF7E00",
"g	c #FF4D00",
"h	c #FFBA00",
"i	c #FF8D00",
"j	c #FF9E00",
"k	c #FF5700",
"l	c #FF9700",
"m	c #FF7400",
"n	c #FFE500",
"o	c #FFDA00",
"p	c #FF7700",
"q	c #FFA800",
"r	c #FFF000",
"s	c #FFC000",
"t	c #FFDF00",
"u	c #FF4900",
"v	c #FF8400",
"w	c #FF4A00",
"x	c #FF7A00",
"y	c #FFA600",
"z	c #FF7C00",
"A	c #FF6000",
"B	c #FFC300",
"C	c #FFBE00",
"D	c #FFC600",
"E	c #FFC800",
"F	c #FFCA00",
"G	c #FFCD00",
"H	c #FFCF00",
" .+@#$#%&*=--;-==*>=,$'')!~{]^/(",
"_;:)<^,[}|12|13}/4-5*&%677'8 .90",
"<ab,^^8^^cde]]dc981~~f+@g76+8h.c",
",%@'dedecii]_h]]_]d^d_1(b#<<-j e",
"&k6*d_d|}1i.]_h]]]{ddd l=mno/pd ",
"%:%2{d1lq]~.]]]]]]d/|.. j-lrs;p.",
")#-h]8^qe_~d]]]]]]]~}1].{|,]t=#<",
"##9_^^ .d_~d{]]]]{__ei8d]_/!!buk",
"#'_]j_ dd{~d{]]]]{he{_19e]c-@b77",
":[_cd  ]_h88q..e]]_]_]e1c]]v'bw7",
"@0 9{ 9xlh|px0<~q]ed__dy~_]~!@77",
"g3_^ szbAeeq^83/pxxj{{h_cy_e4)77",
"b<]d  l!!.{]]{e.qy~q s__]y _i&gu",
"6}]d sB.d h ]]{__]h__ _{ cdh^*bw",
"@4_q  C  {  hhhh hh{ ^0ch_^hd;@7",
"b( ^h  C]d    {]_h ]{m$=d]ch_/)g",
"b#{q_  C {     h { ]el--. y]hi&b",
"#61hd_  e.     {   h]hyq  deB1'b",
"kb=h]_ ]!,^   ].h  _]     d_Di:7",
"*:#~__ d!6}  h.]  hChh    d_B<6g",
"3$b>_] {^p~   h    hfv{C hd Bx@b",
"y=b6<h_  _h   dd   9k:lB _esh=7w",
"e2)b%9 h   h d((c Ce/'1Bs. Ej%77",
"]e4:7&q{    Bc!b/D s.l{Ch_DD-7uu",
"D]^=gw(q h hh y/jB  BFsh_ G~#uuu",
"Fse8!b7+^s h_          _CFe!7uw7",
"sH .1!b7%<h _{h       hDH.,b77w#",
"h{G y8>bw@=dB h h    sGFl&b7u7bz",
"{_ H .j;#gub!2dCBDBGD_2>b77u7@4^",
"_{{ Ese^f&bww@#![mz5!%b777g7#-jd",
"_ { {Fsey84a6wu77777777g@b:&}^de",
"{ h]hCBDhd9<p&#g77gg7bbb)+m1^.]G"};
